<svg xmlns="http://www.w3.org/2000/svg" viewBox="-2 -2 814 814" width="814" height="814"><path d="M 405.00 0.00 A 405.0 405.0 0 0 1 790.18 279.85 L 628.40 332.41 A 234.9 234.9 0 0 0 405.00 170.10 Z" fill="#1D1E20"><title>Black 20%</title></path><path d="M 790.18 279.85 A 405.0 405.0 0 0 1 732.65 643.05 L 595.04 543.07 A 234.9 234.9 0 0 0 628.40 332.41 Z" fill="#8C8382"><title>Grey 15%</title></path><path d="M 732.65 643.05 A 405.0 405.0 0 0 1 430.43 809.20 L 419.75 639.44 A 234.9 234.9 0 0 0 595.04 543.07 Z" fill="#EDECE5" stroke="#D0CCC5" stroke-width="1.2"><title>White/cream 14%</title></path><path d="M 430.43 809.20 A 405.0 405.0 0 0 1 146.84 717.06 L 255.27 585.99 A 234.9 234.9 0 0 0 419.75 639.44 Z" fill="#AB9C8D"><title>Brown/beige 12%</title></path><path d="M 146.84 717.06 A 405.0 405.0 0 0 1 38.55 577.44 L 192.46 505.02 A 234.9 234.9 0 0 0 255.27 585.99 Z" fill="#C33F35"><title>Red 7%</title></path><path d="M 38.55 577.44 A 405.0 405.0 0 0 1 7.17 480.89 L 174.26 449.02 A 234.9 234.9 0 0 0 192.46 505.02 Z" fill="#E9D57E"><title>Yellow/gold 4%</title></path><path d="M 7.17 480.89 A 405.0 405.0 0 0 1 0.80 379.57 L 170.56 390.25 A 234.9 234.9 0 0 0 174.26 449.02 Z" fill="#27252B"><title>Navy 4%</title></path><path d="M 0.80 379.57 A 405.0 405.0 0 0 1 19.82 279.85 L 181.60 332.41 A 234.9 234.9 0 0 0 170.56 390.25 Z" fill="#703B3D"><title>Burgundy 4%</title></path><path d="M 19.82 279.85 A 405.0 405.0 0 0 1 50.10 209.89 L 199.16 291.84 A 234.9 234.9 0 0 0 181.60 332.41 Z" fill="#AD9B93"><title>Floral print 3%</title></path><path d="M 50.10 209.89 A 405.0 405.0 0 0 1 92.94 146.84 L 224.01 255.27 A 234.9 234.9 0 0 0 199.16 291.84 Z" fill="#AAB69C"><title>Green/olive 3%</title></path><path d="M 92.94 146.84 A 405.0 405.0 0 0 1 146.84 92.94 L 255.27 224.01 A 234.9 234.9 0 0 0 224.01 255.27 Z" fill="#898E92"><title>Graphic print 3%</title></path><path d="M 146.84 92.94 A 405.0 405.0 0 0 1 209.89 50.10 L 291.84 199.16 A 234.9 234.9 0 0 0 255.27 224.01 Z" fill="#C4959D"><title>Pink 3%</title></path><path d="M 209.89 50.10 A 405.0 405.0 0 0 1 279.85 19.82 L 332.41 181.60 A 234.9 234.9 0 0 0 291.84 199.16 Z" fill="#B58279"><title>Animal print 3%</title></path><path d="M 279.85 19.82 A 405.0 405.0 0 0 1 329.11 7.17 L 360.98 174.26 A 234.9 234.9 0 0 0 332.41 181.60 Z" fill="#CAD5DD"><title>Blue 2%</title></path><path d="M 329.11 7.17 A 405.0 405.0 0 0 1 379.57 0.80 L 390.25 170.56 A 234.9 234.9 0 0 0 360.98 174.26 Z" fill="#A23A28"><title>Orange/rust 2%</title></path><path d="M 379.57 0.80 A 405.0 405.0 0 0 1 405.00 0.00 L 405.00 170.10 A 234.9 234.9 0 0 0 390.25 170.56 Z" fill="#DBDBD5"><title>Other print 1%</title></path><text x="593.1" y="146.2" text-anchor="middle" dominant-baseline="central" font-family="Arimo, Arial, sans-serif" font-size="42" fill="#FFFFFF">20%</text><text x="721.0" y="455.1" text-anchor="middle" dominant-baseline="central" font-family="Arimo, Arial, sans-serif" font-size="42" fill="#FFFFFF">15%</text><text x="559.1" y="685.4" text-anchor="middle" dominant-baseline="central" font-family="Arimo, Arial, sans-serif" font-size="32" fill="#000000">14%</text><text x="306.1" y="709.3" text-anchor="middle" dominant-baseline="central" font-family="Arimo, Arial, sans-serif" font-size="32" fill="#FFFFFF">12%</text><text x="152.2" y="601.1" text-anchor="middle" dominant-baseline="central" font-family="Arimo, Arial, sans-serif" font-size="24" fill="#FFFFFF">7%</text><text x="100.7" y="503.9" text-anchor="middle" dominant-baseline="central" font-family="Arimo, Arial, sans-serif" font-size="24" fill="#000000">4%</text><text x="85.7" y="425.1" text-anchor="middle" dominant-baseline="central" font-family="Arimo, Arial, sans-serif" font-size="24" fill="#FFFFFF">4%</text><text x="90.7" y="345.0" text-anchor="middle" dominant-baseline="central" font-family="Arimo, Arial, sans-serif" font-size="24" fill="#FFFFFF">4%</text><text x="111.4" y="277.9" text-anchor="middle" dominant-baseline="central" font-family="Arimo, Arial, sans-serif" font-size="24" fill="#FFFFFF">3%</text><text x="140.4" y="225.2" text-anchor="middle" dominant-baseline="central" font-family="Arimo, Arial, sans-serif" font-size="24" fill="#FFFFFF">3%</text><text x="178.8" y="178.8" text-anchor="middle" dominant-baseline="central" font-family="Arimo, Arial, sans-serif" font-size="24" fill="#FFFFFF">3%</text><text x="225.2" y="140.4" text-anchor="middle" dominant-baseline="central" font-family="Arimo, Arial, sans-serif" font-size="24" fill="#FFFFFF">3%</text><text x="277.9" y="111.4" text-anchor="middle" dominant-baseline="central" font-family="Arimo, Arial, sans-serif" font-size="24" fill="#FFFFFF">3%</text><text x="325.4" y="95.1" text-anchor="middle" dominant-baseline="central" font-family="Arimo, Arial, sans-serif" font-size="24" fill="#000000">2%</text><text x="364.9" y="87.6" text-anchor="middle" dominant-baseline="central" font-family="Arimo, Arial, sans-serif" font-size="24" fill="#FFFFFF">2%</text></svg>