<svg xmlns="http://www.w3.org/2000/svg" viewBox="-2 -2 814 814" width="814" height="814"><path d="M 405.00 0.00 A 405.0 405.0 0 0 1 809.20 379.57 L 639.44 390.25 A 234.9 234.9 0 0 0 405.00 170.10 Z" fill="#B08A5C"><title>Animal print 24%</title></path><path d="M 809.20 379.57 A 405.0 405.0 0 0 1 505.72 797.28 L 463.42 632.52 A 234.9 234.9 0 0 0 639.44 390.25 Z" fill="#1C1E20"><title>Black 22%</title></path><path d="M 505.72 797.28 A 405.0 405.0 0 0 1 166.95 732.65 L 266.93 595.04 A 234.9 234.9 0 0 0 463.42 632.52 Z" fill="#7E7F51"><title>Green/olive 14%</title></path><path d="M 166.95 732.65 A 405.0 405.0 0 0 1 38.55 577.44 L 192.46 505.02 A 234.9 234.9 0 0 0 266.93 595.04 Z" fill="#A28146"><title>Yellow/gold 8%</title></path><path d="M 38.55 577.44 A 405.0 405.0 0 0 1 0.80 379.57 L 170.56 390.25 A 234.9 234.9 0 0 0 192.46 505.02 Z" fill="#A086C7"><title>Purple/lilac 8%</title></path><path d="M 0.80 379.57 A 405.0 405.0 0 0 1 28.44 255.91 L 186.60 318.53 A 234.9 234.9 0 0 0 170.56 390.25 Z" fill="#805534"><title>Brown/beige 5%</title></path><path d="M 28.44 255.91 A 405.0 405.0 0 0 1 92.94 146.84 L 224.01 255.27 A 234.9 234.9 0 0 0 186.60 318.53 Z" fill="#B8651F"><title>Orange/rust 5%</title></path><path d="M 92.94 146.84 A 405.0 405.0 0 0 1 187.99 63.05 L 279.13 206.67 A 234.9 234.9 0 0 0 224.01 255.27 Z" fill="#C98FA0"><title>Floral print 5%</title></path><path d="M 187.99 63.05 A 405.0 405.0 0 0 1 279.85 19.82 L 332.41 181.60 A 234.9 234.9 0 0 0 279.13 206.67 Z" fill="#878381"><title>Grey 4%</title></path><path d="M 279.85 19.82 A 405.0 405.0 0 0 1 354.24 3.19 L 375.56 171.95 A 234.9 234.9 0 0 0 332.41 181.60 Z" fill="#E5E5E4"><title>White/cream 3%</title></path><path d="M 354.24 3.19 A 405.0 405.0 0 0 1 405.00 0.00 L 405.00 170.10 A 234.9 234.9 0 0 0 375.56 171.95 Z" fill="#1F2A48"><title>Navy 2%</title></path><text x="624.0" y="171.8" text-anchor="middle" dominant-baseline="central" font-family="Arimo, Arial, sans-serif" font-size="42" fill="#FFFFFF">24%</text><text x="663.8" y="593.1" text-anchor="middle" dominant-baseline="central" font-family="Arimo, Arial, sans-serif" font-size="42" fill="#FFFFFF">22%</text><text x="345.0" y="719.3" text-anchor="middle" dominant-baseline="central" font-family="Arimo, Arial, sans-serif" font-size="32" fill="#FFFFFF">14%</text><text x="158.5" y="608.9" text-anchor="middle" dominant-baseline="central" font-family="Arimo, Arial, sans-serif" font-size="32" fill="#FFFFFF">8%</text><text x="90.7" y="465.0" text-anchor="middle" dominant-baseline="central" font-family="Arimo, Arial, sans-serif" font-size="32" fill="#FFFFFF">8%</text><text x="92.8" y="335.2" text-anchor="middle" dominant-baseline="central" font-family="Arimo, Arial, sans-serif" font-size="24" fill="#FFFFFF">5%</text><text x="129.6" y="242.1" text-anchor="middle" dominant-baseline="central" font-family="Arimo, Arial, sans-serif" font-size="24" fill="#FFFFFF">5%</text><text x="193.4" y="165.0" text-anchor="middle" dominant-baseline="central" font-family="Arimo, Arial, sans-serif" font-size="24" fill="#FFFFFF">5%</text><text x="268.8" y="115.5" text-anchor="middle" dominant-baseline="central" font-family="Arimo, Arial, sans-serif" font-size="24" fill="#FFFFFF">4%</text><text x="335.2" y="92.8" text-anchor="middle" dominant-baseline="central" font-family="Arimo, Arial, sans-serif" font-size="24" fill="#000000">3%</text><text x="384.9" y="85.7" text-anchor="middle" dominant-baseline="central" font-family="Arimo, Arial, sans-serif" font-size="24" fill="#FFFFFF">2%</text></svg>