<svg xmlns="http://www.w3.org/2000/svg" viewBox="-2 -2 814 814" width="814" height="814"><path d="M 405.00 0.00 A 405.0 405.0 0 0 1 809.20 379.57 L 639.44 390.25 A 234.9 234.9 0 0 0 405.00 170.10 Z" fill="#506045"><title>Green/olive 24%</title></path><path d="M 809.20 379.57 A 405.0 405.0 0 0 1 554.09 781.56 L 491.47 623.40 A 234.9 234.9 0 0 0 639.44 390.25 Z" fill="#F3F1EE" stroke="#D0CCC5" stroke-width="1.2"><title>White/cream 20%</title></path><path d="M 554.09 781.56 A 405.0 405.0 0 0 1 255.91 781.56 L 318.53 623.40 A 234.9 234.9 0 0 0 491.47 623.40 Z" fill="#AB562F"><title>Orange/rust 12%</title></path><path d="M 255.91 781.56 A 405.0 405.0 0 0 1 50.10 600.11 L 199.16 518.16 A 234.9 234.9 0 0 0 318.53 623.40 Z" fill="#C9D43A"><title>Yellow/gold 11%</title></path><path d="M 50.10 600.11 A 405.0 405.0 0 0 1 3.19 354.24 L 171.95 375.56 A 234.9 234.9 0 0 0 199.16 518.16 Z" fill="#4A5450"><title>Grey 10%</title></path><path d="M 3.19 354.24 A 405.0 405.0 0 0 1 92.94 146.84 L 224.01 255.27 A 234.9 234.9 0 0 0 171.95 375.56 Z" fill="#814529"><title>Brown/beige 9%</title></path><path d="M 92.94 146.84 A 405.0 405.0 0 0 1 209.89 50.10 L 291.84 199.16 A 234.9 234.9 0 0 0 224.01 255.27 Z" fill="#8E8E9E"><title>Graphic print 6%</title></path><path d="M 209.89 50.10 A 405.0 405.0 0 0 1 329.11 7.17 L 360.98 174.26 A 234.9 234.9 0 0 0 291.84 199.16 Z" fill="#2A35B0"><title>Blue 5%</title></path><path d="M 329.11 7.17 A 405.0 405.0 0 0 1 405.00 0.00 L 405.00 170.10 A 234.9 234.9 0 0 0 360.98 174.26 Z" fill="#1C1E20"><title>Black 3%</title></path><text x="624.0" y="171.8" text-anchor="middle" dominant-baseline="central" font-family="Arimo, Arial, sans-serif" font-size="42" fill="#FFFFFF">24%</text><text x="675.1" y="576.4" text-anchor="middle" dominant-baseline="central" font-family="Arimo, Arial, sans-serif" font-size="42" fill="#000000">20%</text><text x="405.0" y="725.0" text-anchor="middle" dominant-baseline="central" font-family="Arimo, Arial, sans-serif" font-size="32" fill="#FFFFFF">12%</text><text x="193.4" y="645.0" text-anchor="middle" dominant-baseline="central" font-family="Arimo, Arial, sans-serif" font-size="32" fill="#000000">11%</text><text x="90.7" y="465.0" text-anchor="middle" dominant-baseline="central" font-family="Arimo, Arial, sans-serif" font-size="32" fill="#FFFFFF">10%</text><text x="111.4" y="277.9" text-anchor="middle" dominant-baseline="central" font-family="Arimo, Arial, sans-serif" font-size="32" fill="#FFFFFF">9%</text><text x="201.1" y="158.5" text-anchor="middle" dominant-baseline="central" font-family="Arimo, Arial, sans-serif" font-size="24" fill="#FFFFFF">6%</text><text x="296.6" y="104.0" text-anchor="middle" dominant-baseline="central" font-family="Arimo, Arial, sans-serif" font-size="24" fill="#FFFFFF">5%</text><text x="374.9" y="86.5" text-anchor="middle" dominant-baseline="central" font-family="Arimo, Arial, sans-serif" font-size="24" fill="#FFFFFF">3%</text></svg>