<svg xmlns="http://www.w3.org/2000/svg" viewBox="-2 -2 814 814" width="814" height="814"><path d="M 405.00 0.00 A 405.0 405.0 0 0 1 746.95 187.99 L 603.33 279.13 A 234.9 234.9 0 0 0 405.00 170.10 Z" fill="#8B8988"><title>Grey 16%</title></path><path d="M 746.95 187.99 A 405.0 405.0 0 0 1 771.45 577.44 L 617.54 505.02 A 234.9 234.9 0 0 0 603.33 279.13 Z" fill="#1C1E20"><title>Black 16%</title></path><path d="M 771.45 577.44 A 405.0 405.0 0 0 1 505.72 797.28 L 463.42 632.52 A 234.9 234.9 0 0 0 617.54 505.02 Z" fill="#ECEAE7" stroke="#D0CCC5" stroke-width="1.2"><title>White/cream 14%</title></path><path d="M 505.72 797.28 A 405.0 405.0 0 0 1 166.95 732.65 L 266.93 595.04 A 234.9 234.9 0 0 0 463.42 632.52 Z" fill="#BD9F7F"><title>Brown/beige 14%</title></path><path d="M 166.95 732.65 A 405.0 405.0 0 0 1 12.72 505.72 L 177.48 463.42 A 234.9 234.9 0 0 0 266.93 595.04 Z" fill="#C98FA0"><title>Floral print 11%</title></path><path d="M 12.72 505.72 A 405.0 405.0 0 0 1 3.19 354.24 L 171.95 375.56 A 234.9 234.9 0 0 0 177.48 463.42 Z" fill="#37497F"><title>Blue 6%</title></path><path d="M 3.19 354.24 A 405.0 405.0 0 0 1 38.55 232.56 L 192.46 304.98 A 234.9 234.9 0 0 0 171.95 375.56 Z" fill="#5F6131"><title>Green/olive 5%</title></path><path d="M 38.55 232.56 A 405.0 405.0 0 0 1 92.94 146.84 L 224.01 255.27 A 234.9 234.9 0 0 0 192.46 304.98 Z" fill="#8E8E9E"><title>Graphic print 4%</title></path><path d="M 92.94 146.84 A 405.0 405.0 0 0 1 166.95 77.35 L 266.93 214.96 A 234.9 234.9 0 0 0 224.01 255.27 Z" fill="#E1D691"><title>Yellow/gold 4%</title></path><path d="M 166.95 77.35 A 405.0 405.0 0 0 1 232.56 38.55 L 304.98 192.46 A 234.9 234.9 0 0 0 266.93 214.96 Z" fill="#F19370"><title>Orange/rust 3%</title></path><path d="M 232.56 38.55 A 405.0 405.0 0 0 1 304.28 12.72 L 346.58 177.48 A 234.9 234.9 0 0 0 304.98 192.46 Z" fill="#E979A0"><title>Pink 3%</title></path><path d="M 304.28 12.72 A 405.0 405.0 0 0 1 379.57 0.80 L 390.25 170.56 A 234.9 234.9 0 0 0 346.58 177.48 Z" fill="#21273B"><title>Navy 3%</title></path><path d="M 379.57 0.80 A 405.0 405.0 0 0 1 405.00 0.00 L 405.00 170.10 A 234.9 234.9 0 0 0 390.25 170.56 Z" fill="#C8102E"><title>Red 1%</title></path><text x="559.1" y="124.6" text-anchor="middle" dominant-baseline="central" font-family="Arimo, Arial, sans-serif" font-size="42" fill="#FFFFFF">16%</text><text x="724.3" y="384.9" text-anchor="middle" dominant-baseline="central" font-family="Arimo, Arial, sans-serif" font-size="42" fill="#FFFFFF">16%</text><text x="608.9" y="651.5" text-anchor="middle" dominant-baseline="central" font-family="Arimo, Arial, sans-serif" font-size="32" fill="#000000">14%</text><text x="345.0" y="719.3" text-anchor="middle" dominant-baseline="central" font-family="Arimo, Arial, sans-serif" font-size="32" fill="#FFFFFF">14%</text><text x="140.4" y="584.8" text-anchor="middle" dominant-baseline="central" font-family="Arimo, Arial, sans-serif" font-size="32" fill="#FFFFFF">11%</text><text x="85.7" y="425.1" text-anchor="middle" dominant-baseline="central" font-family="Arimo, Arial, sans-serif" font-size="24" fill="#FFFFFF">6%</text><text x="97.8" y="315.7" text-anchor="middle" dominant-baseline="central" font-family="Arimo, Arial, sans-serif" font-size="24" fill="#FFFFFF">5%</text><text x="134.9" y="233.6" text-anchor="middle" dominant-baseline="central" font-family="Arimo, Arial, sans-serif" font-size="24" fill="#FFFFFF">4%</text><text x="186.0" y="171.8" text-anchor="middle" dominant-baseline="central" font-family="Arimo, Arial, sans-serif" font-size="24" fill="#000000">4%</text><text x="242.1" y="129.6" text-anchor="middle" dominant-baseline="central" font-family="Arimo, Arial, sans-serif" font-size="24" fill="#FFFFFF">3%</text><text x="296.6" y="104.0" text-anchor="middle" dominant-baseline="central" font-family="Arimo, Arial, sans-serif" font-size="24" fill="#FFFFFF">3%</text><text x="354.9" y="89.0" text-anchor="middle" dominant-baseline="central" font-family="Arimo, Arial, sans-serif" font-size="24" fill="#FFFFFF">3%</text></svg>